<svg width="1200" height="630" viewBox="0 0 1200 630" fill="none" xmlns="http://www.w3.org/2000/svg">
  <defs>
    <linearGradient id="bgMain" x1="0" y1="0" x2="1" y2="1">
      <stop offset="0%" stop-color="#0A0F1A"/>
      <stop offset="100%" stop-color="#101827"/>
    </linearGradient>

    <linearGradient id="brandGrad" x1="0" y1="0" x2="1" y2="1">
      <stop offset="0%" stop-color="#3B82F6"/>
      <stop offset="100%" stop-color="#22D3EE"/>
    </linearGradient>

    <radialGradient id="glow1" cx="0" cy="0" r="1" gradientUnits="userSpaceOnUse" gradientTransform="translate(980 120) rotate(90) scale(220 220)">
      <stop stop-color="#3B82F6" stop-opacity="0.22"/>
      <stop offset="1" stop-color="#3B82F6" stop-opacity="0"/>
    </radialGradient>

    <radialGradient id="glow2" cx="0" cy="0" r="1" gradientUnits="userSpaceOnUse" gradientTransform="translate(160 520) rotate(90) scale(240 240)">
      <stop stop-color="#22D3EE" stop-opacity="0.18"/>
      <stop offset="1" stop-color="#22D3EE" stop-opacity="0"/>
    </radialGradient>
  </defs>

  <rect width="1200" height="630" fill="url(#bgMain)"/>
  <rect width="1200" height="630" fill="url(#glow1)"/>
  <rect width="1200" height="630" fill="url(#glow2)"/>

  <rect x="84" y="86" width="120" height="120" rx="32" fill="#0F1724"/>
  <rect x="85.2" y="87.2" width="117.6" height="117.6" rx="30.8" stroke="url(#brandGrad)" stroke-opacity="0.28" stroke-width="2.4"/>
  <path d="M117 172L144 122L171 172H159L154.5 163.1H135.7L131.2 172H117ZM139.9 152.4H149.2L144.5 142.3L139.9 152.4Z" fill="url(#brandGrad)"/>

  <text x="84" y="290" fill="#FFFFFF" font-family="Poppins, Arial, sans-serif" font-size="74" font-weight="800" letter-spacing="-2">
    AnnovaTech
  </text>

  <text x="84" y="360" fill="#C3CCDA" font-family="Inter, Arial, sans-serif" font-size="30" font-weight="500">
    Frontend, marketing y analítica para negocios
  </text>
  <text x="84" y="402" fill="#C3CCDA" font-family="Inter, Arial, sans-serif" font-size="30" font-weight="500">
    que quieren crecer.
  </text>

  <rect x="84" y="462" width="284" height="56" rx="28" fill="url(#brandGrad)" fill-opacity="0.12"/>
  <rect x="84.8" y="462.8" width="282.4" height="54.4" rx="27.2" stroke="url(#brandGrad)" stroke-opacity="0.28" stroke-width="1.6"/>
  <text x="114" y="498" fill="#22D3EE" font-family="Inter, Arial, sans-serif" font-size="22" font-weight="700">
    Diseño digital estratégico
  </text>
</svg>